{"title":"Frosty Returns DVD 1992","uid":5238284,"size":229387456,"categoryP":"video","categoryS":"movies","magnet":"?xt=urn:btih:06c24d0a1ae85155ed900082d76c08e982b3ebba&amp;dn=Frosty+Returns+DVD+1992&amp;tr=udp%3A%2F%2Ftracker.openbittorrent.com%3A80&amp;tr=udp%3A%2F%2Fopen.demonii.com%3A1337&amp;tr=udp%3A%2F%2Ftracker.coppersurfer.tk%3A6969&amp;tr=udp%3A%2F%2Fexodus.desync.com%3A6969","seeders":1,"leechers":0,"uploader":"IwannaFan2","files":1,"time":1261634092,"description":"Format                           : AVI\nFormat/Info                      : Audio Video Interleave\nFile size                        : 219 MiB\nDuration                         : 22mn 55s\nOverall bit rate                 : 1 334 Kbps\nMovie name                       : Frosty Returns\nDirector                         : NameBrand\nWriting application              : Lavf51.19.0\nOriginal source form/Name        : Frosty the Snowman and Frosty Returns\n\nVideo\nID                               : 0\nFormat                           : MPEG-4 Visual\nFormat profile                   : Simple@L3\nFormat settings, BVOP            : No\nFormat settings, QPel            : No\nFormat settings, GMC             : No warppoints\nFormat settings, Matrix          : Default (H.263)\nCodec ID                         : XVID\nCodec ID/Hint                    : XviD\nDuration                         : 22mn 55s\nBit rate                         : 1 192 Kbps\nWidth                            : 512 pixels\nHeight                           : 384 pixels\nDisplay aspect ratio             : 4:3\nFrame rate                       : 29.970 fps\nResolution                       : 24 bits\nColorimetry                      : 4:2:0\nScan type                        : Progressive\nBits/(Pixel*Frame)               : 0.202\nStream size                      : 195 MiB (89%)\nWriting library                  : XviD 1.1.2 (UTC 2006-11-01)\n\nAudio\nID                               : 1\nFormat                           : MPEG Audio\nFormat version                   : Version 1\nFormat profile                   : Layer 3\nFormat_Settings_Mode             : Joint stereo / MS Stereo\nCodec ID                         : 55\nCodec ID/Hint                    : MP3\nDuration                         : 22mn 54s\nBit rate mode                    : Constant\nBit rate                         : 128 Kbps\nChannel(s)                       : 2 channels\nSampling rate                    : 48.0 KHz\nResolution                       : 16 bits\nStream size                      : 21.0 MiB (10%)\nAlignment                        : Aligned on interleaves\nInterleave, duration             : 24 ms (0.72 video frame)","torrent":{"xt":"urn:btih:06c24d0a1ae85155ed900082d76c08e982b3ebba","amp;dn":"Frosty+Returns+DVD+1992","amp;tr":["udp%3A%2F%2Ftracker.openbittorrent.com%3A80","udp%3A%2F%2Fopen.demonii.com%3A1337","udp%3A%2F%2Ftracker.coppersurfer.tk%3A6969","udp%3A%2F%2Fexodus.desync.com%3A6969"],"infoHash":"06c24d0a1ae85155ed900082d76c08e982b3ebba","infoHashBuffer":{"type":"Buffer","data":[6,194,77,10,26,232,81,85,237,144,0,130,215,108,8,233,130,179,235,186]},"announce":[],"urlList":[]}}